#!OML:ASF X:\für Bonn\!DataBase\2005_08_12_Daniel\c3d\Daniel.ASF
:FULLY-SPECIFIED
:DEGREES
61
root -32.5422 18.8676 -0.944506 523.135 93.641 -1995.9
lowerback 19.508 -0.722885 2.07681
upperback 1.22194 -0.634256 -2.45036
thorax -9.67894 -0.406228 -3.70638
lowerneck 9.48327 1.87397 -8.46104
upperneck 6.00682 1.8939 1.68762
head 0.194501 0.867516 1.92603
rclavicle -1.47101e-014 -1.90833e-014
rhumerus 14.2393 42.0458 -80.857
rradius 92.7567
rwrist -3.83892
rhand -28.7732 30.9328
rfingers 7.12502
rthumb -2.13269 0.963703
lclavicle -1.47101e-014 -1.90833e-014
lhumerus 25.2714 -32.8817 64.0398
lradius 102.1
lwrist 13.7138
lhand -17.2929 -14.0239
lfingers 7.12502
lthumb 8.9527 15.7662
rfemur -5.72066 0.770454 22.7565
rtibia 54.7908
rfoot 26.7539 -3.33309
rtoes -12.2287
lfemur -6.25965 -1.15673 -20.6952
ltibia 61.2412
lfoot 6.76322 -7.74627
ltoes -31.597
62
root -32.3195 18.9678 -0.936426 524.465 93.7872 -1994.26
lowerback 19.9961 -0.675004 1.92919
upperback 1.47521 -0.581288 -2.44601
thorax -9.66183 -0.36459 -3.63385
lowerneck 8.78392 1.79402 -8.57116
upperneck 6.30812 1.85283 1.47029
head 0.411589 0.838621 1.88083
rclavicle -4.57205e-015 -6.36111e-015
rhumerus 13.8755 42.4261 -80.8843
rradius 93.0792
rwrist -4.33651
rhand -28.7578 30.411
rfingers 7.12502
rthumb -2.11778 0.441798
lclavicle -4.57205e-015 -6.36111e-015
lhumerus 24.7038 -33.1193 64.0757
lradius 102.269
lwrist 13.2976
lhand -17.7926 -13.7128
lfingers 7.12502
lthumb 8.47049 16.0973
rfemur -6.46452 0.275163 22.6708
rtibia 55.2591
rfoot 25.9381 -2.93381
rtoes -12.2269
lfemur -6.6895 -0.854592 -20.6378
ltibia 60.9163
lfoot 6.28077 -6.86381
ltoes -30.8491
63
root -32.0993 19.0551 -0.929214 526.23 93.9102 -1992.21
lowerback 20.5038 -0.614971 1.77723
upperback 1.72676 -0.516052 -2.47108
thorax -9.65556 -0.317584 -3.59564
lowerneck 8.17534 1.695 -8.63187
upperneck 6.50291 1.78023 1.29125
head 0.5806 0.7954 1.83989
rclavicle -2.84262e-014 -9.54166e-015
rhumerus 13.3372 42.7176 -81.0497
rradius 93.0904
rwrist -4.74984
rhand -28.7805 29.9363
rfingers 7.12502
rthumb -2.13971 -0.0327187
lclavicle -2.84262e-014 -9.54166e-015
lhumerus 23.9433 -33.4296 64.23
lradius 102.335
lwrist 12.9039
lhand -18.1036 -13.2816
lfingers 7.12502
lthumb 8.17037 16.5404
rfemur -7.17626 -0.263532 22.5069
rtibia 55.5452
rfoot 24.7811 -2.93955
rtoes -12.305
lfemur -7.12916 -0.587831 -20.643
ltibia 60.4701
lfoot 5.53887 -5.72546
ltoes -30.5776
64
root -31.8822 19.1323 -0.922864 527.275 94.0404 -1990.9
lowerback 20.9948 -0.566037 1.66112
upperback 2.02081 -0.45272 -2.46473
thorax -9.59169 -0.270121 -3.54264
lowerneck 7.5327 1.62547 -8.74385
upperneck 6.58895 1.73815 1.22115
head 0.717359 0.766595 1.84341
rclavicle -1.25234e-014 1.43125e-014
rhumerus 12.8289 43.0448 -81.1617
rradius 92.8739
rwrist -5.05754
rhand -28.8476 29.4776
rfingers 7.12502
rthumb -2.2045 -0.490742
lclavicle -1.25234e-014 1.43125e-014
lhumerus 22.9879 -33.704 64.5989
lradius 102.316
lwrist 12.4806
lhand -18.1486 -12.772
lfingers 7.12502
lthumb 8.12691 17.0517
rfemur -7.85646 -0.811563 22.3747
rtibia 55.5967
rfoot 23.4127 -3.22136
rtoes -12.1437
lfemur -7.62487 -0.298487 -20.5901
ltibia 59.9392
lfoot 4.69018 -4.592
ltoes -30.13
65
root -31.6656 19.1965 -0.91662 528.601 94.1753 -1989.31
lowerback 21.5093 -0.5119 1.51658
upperback 2.32002 -0.389115 -2.46611
thorax -9.53331 -0.221201 -3.48276
lowerneck 6.79431 1.55381 -8.82463
upperneck 6.72166 1.70531 1.19163
head 0.884817 0.741289 1.85611
rclavicle -6.36111e-015 0
rhumerus 12.0945 43.3657 -81.4348
rradius 92.6299
rwrist -5.27511
rhand -28.9312 28.9781
rfingers 7.12502
rthumb -2.28524 -0.989357
lclavicle -6.36111e-015 0
lhumerus 21.813 -33.9979 65.1204
lradius 102.276
lwrist 12.2172
lhand -18.0107 -12.3396
lfingers 7.12502
lthumb 8.26001 17.4789
rfemur -8.49084 -1.32757 22.2221
rtibia 55.4457
rfoot 21.9364 -3.64878
rtoes -11.3914
lfemur -8.1299 -0.0265937 -20.5731
ltibia 59.3047
lfoot 3.88092 -3.50821
ltoes -29.2859
